{
  "asset": {
    "version": "2.0",
    "generator": "Original practice asset / tools/build_assets.py"
  },
  "scene": 0,
  "scenes": [
    {
      "nodes": [
        0,
        1,
        2,
        3,
        4,
        5,
        6,
        7,
        8,
        9,
        10
      ]
    }
  ],
  "nodes": [
    {
      "name": "Torso",
      "mesh": 0,
      "translation": [
        0,
        1.02,
        0
      ],
      "scale": [
        0.64,
        0.6,
        0.38
      ]
    },
    {
      "name": "Cabeza",
      "mesh": 0,
      "translation": [
        0,
        1.56,
        0
      ],
      "scale": [
        0.58,
        0.44,
        0.43
      ]
    },
    {
      "name": "Visor",
      "mesh": 2,
      "translation": [
        0,
        1.58,
        -0.225
      ],
      "scale": [
        0.45,
        0.17,
        0.035
      ]
    },
    {
      "name": "Cadera",
      "mesh": 1,
      "translation": [
        0,
        0.66,
        0
      ],
      "scale": [
        0.45,
        0.15,
        0.3
      ]
    },
    {
      "name": "BrazoL",
      "mesh": 0,
      "translation": [
        -0.43,
        1.04,
        0
      ],
      "scale": [
        0.17,
        0.52,
        0.22
      ]
    },
    {
      "name": "BrazoR",
      "mesh": 0,
      "translation": [
        0.43,
        1.04,
        0
      ],
      "scale": [
        0.17,
        0.52,
        0.22
      ]
    },
    {
      "name": "PiernaL",
      "mesh": 1,
      "translation": [
        -0.17,
        0.36,
        0
      ],
      "scale": [
        0.19,
        0.44,
        0.22
      ]
    },
    {
      "name": "PiernaR",
      "mesh": 1,
      "translation": [
        0.17,
        0.36,
        0
      ],
      "scale": [
        0.19,
        0.44,
        0.22
      ]
    },
    {
      "name": "PieL",
      "mesh": 0,
      "translation": [
        -0.17,
        0.09,
        -0.06
      ],
      "scale": [
        0.25,
        0.18,
        0.38
      ]
    },
    {
      "name": "PieR",
      "mesh": 0,
      "translation": [
        0.17,
        0.09,
        -0.06
      ],
      "scale": [
        0.25,
        0.18,
        0.38
      ]
    },
    {
      "name": "Insignia",
      "mesh": 2,
      "translation": [
        0,
        1.08,
        -0.2
      ],
      "scale": [
        0.16,
        0.16,
        0.025
      ]
    }
  ],
  "materials": [
    {
      "name": "Ceramica_menta",
      "pbrMetallicRoughness": {
        "baseColorFactor": [
          0.72,
          0.75,
          0.78,
          1
        ],
        "metallicFactor": 0.12,
        "roughnessFactor": 0.65
      }
    },
    {
      "name": "Juntas_grafito",
      "pbrMetallicRoughness": {
        "baseColorFactor": [
          0.055,
          0.085,
          0.13,
          1
        ],
        "metallicFactor": 0.12,
        "roughnessFactor": 0.65
      }
    },
    {
      "name": "Visor_ambar",
      "pbrMetallicRoughness": {
        "baseColorFactor": [
          1,
          0.57,
          0.12,
          1
        ],
        "metallicFactor": 0.12,
        "roughnessFactor": 0.65
      }
    }
  ],
  "meshes": [
    {
      "primitives": [
        {
          "attributes": {
            "POSITION": 0,
            "NORMAL": 1
          },
          "indices": 2,
          "material": 0
        }
      ]
    },
    {
      "primitives": [
        {
          "attributes": {
            "POSITION": 0,
            "NORMAL": 1
          },
          "indices": 2,
          "material": 1
        }
      ]
    },
    {
      "primitives": [
        {
          "attributes": {
            "POSITION": 0,
            "NORMAL": 1
          },
          "indices": 2,
          "material": 2
        }
      ]
    }
  ],
  "buffers": [
    {
      "byteLength": 648,
      "uri": "data:application/octet-stream;base64,"
    }
  ],
  "bufferViews": [
    {
      "buffer": 0,
      "byteOffset": 0,
      "byteLength": 288
    },
    {
      "buffer": 0,
      "byteOffset": 288,
      "byteLength": 288
    },
    {
      "buffer": 0,
      "byteOffset": 576,
      "byteLength": 72
    }
  ],
  "accessors": [
    {
      "bufferView": 0,
      "componentType": 5126,
      "count": 24,
      "type": "VEC3",
      "min": [
        -0.5,
        -0.5,
        -0.5
      ],
      "max": [
        0.5,
        0.5,
        0.5
      ]
    },
    {
      "bufferView": 1,
      "componentType": 5126,
      "count": 24,
      "type": "VEC3"
    },
    {
      "bufferView": 2,
      "componentType": 5123,
      "count": 36,
      "type": "SCALAR"
    }
  ]
}